<svg xmlns="http://www.w3.org/2000/svg" viewBox="0 0 512 512" width="512" height="512"
     data-style="borderball" data-country="KR" data-accessories="gat"
     data-animation-duration="3" data-animation-fps="12">
  <defs>
    <style>
      /* Eye blink - arch eyes close and reopen */
      @keyframes blink-left {
        0%, 35%, 60%, 100% {
          d: M 196 185 A 28 28 0 0 1 252 185 Z;
        }
        47% {
          d: M 196 185 A 28 3 0 0 1 252 185 Z;
        }
      }

      @keyframes blink-right {
        0%, 35%, 60%, 100% {
          d: M 264 185 A 28 28 0 0 1 320 185 Z;
        }
        47% {
          d: M 264 185 A 28 3 0 0 1 320 185 Z;
        }
      }

      #left-eye {
        animation: blink-left 3s ease-in-out infinite;
      }
      #right-eye {
        animation: blink-right 3s ease-in-out infinite;
      }
    </style>
    <clipPath id="body-clip">
      <circle cx="256" cy="256" r="200"/>
    </clipPath>
  </defs>

  <!-- Flag layer (clipped to body) - South Korean Taegeukgi -->
  <g id="layer-flag" clip-path="url(#body-clip)">
    <!-- White background -->
    <rect x="56" y="56" width="400" height="400" fill="#FFFFFF"/>

    <!-- Red (upper) half of taegeuk -->
    <path d="M 256 196 A 60 60 0 0 1 256 316 A 30 30 0 0 0 256 256 A 30 30 0 0 1 256 196"
          fill="#CD2E3A"/>

    <!-- Blue (lower) half of taegeuk -->
    <path d="M 256 316 A 60 60 0 0 1 256 196 A 30 30 0 0 0 256 256 A 30 30 0 0 1 256 316"
          fill="#0047A0"/>

    <!-- 건 (Geon/Heaven) ☰ - Top-left: 3 solid bars -->
    <g transform="translate(154, 154) rotate(-45)">
      <rect x="-25" y="-17" width="50" height="8" rx="1" fill="#000"/>
      <rect x="-25" y="-4" width="50" height="8" rx="1" fill="#000"/>
      <rect x="-25" y="9" width="50" height="8" rx="1" fill="#000"/>
    </g>

    <!-- 감 (Gam/Water) ☵ - Top-right: broken, solid, broken -->
    <g transform="translate(358, 154) rotate(45)">
      <rect x="-25" y="-17" width="21" height="8" rx="1" fill="#000"/>
      <rect x="4" y="-17" width="21" height="8" rx="1" fill="#000"/>
      <rect x="-25" y="-4" width="50" height="8" rx="1" fill="#000"/>
      <rect x="-25" y="9" width="21" height="8" rx="1" fill="#000"/>
      <rect x="4" y="9" width="21" height="8" rx="1" fill="#000"/>
    </g>

    <!-- 이 (Ri/Fire) ☲ - Bottom-left: solid, broken, solid -->
    <g transform="translate(154, 358) rotate(45)">
      <rect x="-25" y="-17" width="50" height="8" rx="1" fill="#000"/>
      <rect x="-25" y="-4" width="21" height="8" rx="1" fill="#000"/>
      <rect x="4" y="-4" width="21" height="8" rx="1" fill="#000"/>
      <rect x="-25" y="9" width="50" height="8" rx="1" fill="#000"/>
    </g>

    <!-- 곤 (Gon/Earth) ☷ - Bottom-right: 3 broken bars -->
    <g transform="translate(358, 358) rotate(-45)">
      <rect x="-25" y="-17" width="21" height="8" rx="1" fill="#000"/>
      <rect x="4" y="-17" width="21" height="8" rx="1" fill="#000"/>
      <rect x="-25" y="-4" width="21" height="8" rx="1" fill="#000"/>
      <rect x="4" y="-4" width="21" height="8" rx="1" fill="#000"/>
      <rect x="-25" y="9" width="21" height="8" rx="1" fill="#000"/>
      <rect x="4" y="9" width="21" height="8" rx="1" fill="#000"/>
    </g>
  </g>

  <!-- Outline layer -->
  <g id="layer-outline">
    <circle cx="256" cy="256" r="200" fill="none" stroke="#000000" stroke-width="12"/>
  </g>

  <!-- Accessories behind eyes: Gat -->
  <g id="layer-accessories-back">
    <g id="acc-gat">
      <ellipse cx="256" cy="88" rx="215" ry="24"
               fill="#1A1A1A" stroke="#000000" stroke-width="3"/>
      <ellipse cx="256" cy="86" rx="210" ry="20"
               fill="#2A2A2A" stroke="none"/>
      <path d="M 216 88 L 224 22 L 288 22 L 296 88 Z"
            fill="#1A1A1A" stroke="#000000" stroke-width="3"/>
      <ellipse cx="256" cy="22" rx="32" ry="8"
               fill="#2A2A2A" stroke="#000000" stroke-width="2"/>
      <line x1="184" y1="90" x2="170" y2="192"
            stroke="#1A1A1A" stroke-width="3" stroke-linecap="round"/>
      <line x1="328" y1="90" x2="342" y2="192"
            stroke="#1A1A1A" stroke-width="3" stroke-linecap="round"/>
      <circle cx="170" cy="194" r="5" fill="#8B4513" stroke="#000" stroke-width="1.5"/>
      <circle cx="342" cy="194" r="5" fill="#8B4513" stroke="#000" stroke-width="1.5"/>
    </g>
  </g>

  <!-- Eyes layer -->
  <g id="layer-eyes">
    <!-- Left eye -->
    <path id="left-eye" d="M 196 185 A 28 28 0 0 1 252 185 Z"
          fill="#FFFFFF" stroke="#000000" stroke-width="4"/>
    <!-- Right eye -->
    <path id="right-eye" d="M 264 185 A 28 28 0 0 1 320 185 Z"
          fill="#FFFFFF" stroke="#000000" stroke-width="4"/>
  </g>
</svg>
